<svg width="19" height="20" viewBox="0 0 19 20" fill="none" xmlns="http://www.w3.org/2000/svg">
<path d="M3.12183 8.00091C3.38592 7.05174 4.14794 6.40843 5.00816 6.40843H14.3465C15.2449 6.40843 16.0309 7.10892 16.2619 8.11541L17.9323 15.3923C18.2671 16.8509 17.3187 18.2812 16.0169 18.2812H2.98349C1.63872 18.2812 0.684315 16.7616 1.09716 15.2778L3.12183 8.00091Z" fill="#D9D9D9"/>
<path d="M4.22559 7.17442C4.75256 5.46975 6.572 2.01229 9.63398 1.81976C12.696 1.62724 14.6818 5.30931 15.292 7.17442M2.98349 18.2812H16.0169C17.3187 18.2812 18.2671 16.8509 17.9323 15.3923L16.2619 8.11541C16.0309 7.10892 15.2449 6.40843 14.3465 6.40843H5.00816C4.14794 6.40843 3.38592 7.05174 3.12183 8.00091L1.09716 15.2778C0.684315 16.7616 1.63872 18.2812 2.98349 18.2812Z" stroke="#EEEEEE" stroke-width="2" stroke-linecap="round"/>
</svg>
